<svg width="27" height="26" viewBox="0 0 27 26" fill="none" xmlns="http://www.w3.org/2000/svg">
<g clip-path="url(#clip0_3_192)">
<path d="M13.6667 2.34102C17.1401 2.34102 17.5514 2.35625 18.9174 2.41719C20.187 2.47305 20.8725 2.68633 21.3295 2.86406C21.9338 3.09766 22.3706 3.38203 22.8225 3.83398C23.2795 4.29102 23.5588 4.72266 23.7924 5.32695C23.9702 5.78398 24.1835 6.47461 24.2393 7.73906C24.3003 9.11016 24.3155 9.52148 24.3155 12.9898C24.3155 16.4633 24.3003 16.8746 24.2393 18.2406C24.1835 19.5102 23.9702 20.1957 23.7924 20.6527C23.5588 21.257 23.2745 21.6938 22.8225 22.1457C22.3655 22.6027 21.9338 22.882 21.3295 23.1156C20.8725 23.2934 20.1819 23.5066 18.9174 23.5625C17.5463 23.6234 17.135 23.6387 13.6667 23.6387C10.1932 23.6387 9.78189 23.6234 8.41588 23.5625C7.14634 23.5066 6.4608 23.2934 6.00377 23.1156C5.39947 22.882 4.96275 22.5977 4.5108 22.1457C4.05377 21.6887 3.77447 21.257 3.54088 20.6527C3.36314 20.1957 3.14986 19.5051 3.094 18.2406C3.03306 16.8695 3.01783 16.4582 3.01783 12.9898C3.01783 9.51641 3.03306 9.10508 3.094 7.73906C3.14986 6.46953 3.36314 5.78398 3.54088 5.32695C3.77447 4.72266 4.05884 4.28594 4.5108 3.83398C4.96783 3.37695 5.39947 3.09766 6.00377 2.86406C6.4608 2.68633 7.15142 2.47305 8.41588 2.41719C9.78189 2.35625 10.1932 2.34102 13.6667 2.34102ZM13.6667 0C10.1374 0 9.69556 0.0152344 8.30924 0.0761719C6.92799 0.137109 5.97838 0.360547 5.15572 0.680469C4.29752 1.01562 3.57134 1.45742 2.85025 2.18359C2.12408 2.90469 1.68228 3.63086 1.34713 4.48398C1.0272 5.31172 0.803766 6.25625 0.742828 7.6375C0.681891 9.02891 0.666656 9.4707 0.666656 13C0.666656 16.5293 0.681891 16.9711 0.742828 18.3574C0.803766 19.7387 1.0272 20.6883 1.34713 21.5109C1.68228 22.3691 2.12408 23.0953 2.85025 23.8164C3.57134 24.5375 4.29752 24.9844 5.15064 25.3145C5.97838 25.6344 6.92291 25.8578 8.30416 25.9188C9.69049 25.9797 10.1323 25.9949 13.6616 25.9949C17.1909 25.9949 17.6327 25.9797 19.019 25.9188C20.4003 25.8578 21.3499 25.6344 22.1725 25.3145C23.0256 24.9844 23.7518 24.5375 24.4729 23.8164C25.194 23.0953 25.6409 22.3691 25.971 21.516C26.2909 20.6883 26.5143 19.7438 26.5753 18.3625C26.6362 16.9762 26.6514 16.5344 26.6514 13.0051C26.6514 9.47578 26.6362 9.03398 26.5753 7.64766C26.5143 6.26641 26.2909 5.3168 25.971 4.49414C25.651 3.63086 25.2092 2.90469 24.4831 2.18359C23.762 1.4625 23.0358 1.01563 22.1827 0.685547C21.3549 0.365625 20.4104 0.142188 19.0292 0.08125C17.6378 0.0152344 17.196 0 13.6667 0Z" fill="#6B0000"/>
<path d="M13.6667 6.32227C9.97994 6.32227 6.98892 9.31328 6.98892 13C6.98892 16.6867 9.97994 19.6777 13.6667 19.6777C17.3534 19.6777 20.3444 16.6867 20.3444 13C20.3444 9.31328 17.3534 6.32227 13.6667 6.32227ZM13.6667 17.3316C11.2749 17.3316 9.33502 15.3918 9.33502 13C9.33502 10.6082 11.2749 8.66836 13.6667 8.66836C16.0585 8.66836 17.9983 10.6082 17.9983 13C17.9983 15.3918 16.0585 17.3316 13.6667 17.3316Z" fill="#6B0000"/>
<path d="M22.1674 6.05813C22.1674 6.92141 21.4667 7.61712 20.6085 7.61712C19.7452 7.61712 19.0495 6.91634 19.0495 6.05813C19.0495 5.19485 19.7503 4.49915 20.6085 4.49915C21.4667 4.49915 22.1674 5.19993 22.1674 6.05813Z" fill="#6B0000"/>
</g>
<defs>
<clipPath id="clip0_3_192">
<rect width="26" height="26" fill="white" transform="translate(0.666656)"/>
</clipPath>
</defs>
</svg>
